<?xml version="1.0" encoding="UTF-8" standalone="no"?>
<!-- Creator: CorelDRAW -->

<svg
   xml:space="preserve"
   width="153.73534mm"
   height="71.561516mm"
   version="1.1"
   style="clip-rule:evenodd;fill-rule:evenodd;image-rendering:optimizeQuality;shape-rendering:geometricPrecision;text-rendering:geometricPrecision"
   viewBox="0 0 15373.534 7156.1515"
   id="svg209"
   sodipodi:docname="sun.svg"
   inkscape:version="1.2.1 (9c6d41e410, 2022-07-14)"
   xmlns:inkscape="http://www.inkscape.org/namespaces/inkscape"
   xmlns:sodipodi="http://sodipodi.sourceforge.net/DTD/sodipodi-0.dtd"
   xmlns="http://www.w3.org/2000/svg"
   xmlns:svg="http://www.w3.org/2000/svg"><sodipodi:namedview
   id="namedview27215"
   pagecolor="#505050"
   bordercolor="#eeeeee"
   borderopacity="1"
   inkscape:showpageshadow="0"
   inkscape:pageopacity="0"
   inkscape:pagecheckerboard="0"
   inkscape:deskcolor="#505050"
   inkscape:document-units="mm"
   showgrid="false"
   inkscape:zoom="0.18748758"
   inkscape:cx="445.36284"
   inkscape:cy="330.68858"
   inkscape:window-width="1366"
   inkscape:window-height="715"
   inkscape:window-x="-8"
   inkscape:window-y="-8"
   inkscape:window-maximized="1"
   inkscape:current-layer="Camada_x0020_1" />
 <defs
   id="defs184"><style
     type="text/css"
     id="style182">
   <![CDATA[
    .str0 {stroke:black;stroke-width:7.62;stroke-miterlimit:10}
    .fil0 {fill:#FFF212}
    .fil1 {fill:#201E1E}
    .fil2 {fill:#FFF212;fill-rule:nonzero}
    .fil3 {fill:#201E1E;fill-rule:nonzero}
   ]]>
  </style></defs>
 <g
   id="Camada_x0020_1"
   transform="translate(-17163.384,-15874.7)"
   inkscape:label="Camada 1"
   inkscape:groupmode="layer">
  <metadata
   id="CorelCorpID_0Corel-Layer" />
  <path
   id="path187"
   style="stroke:none"
   class="fil0 str0"
   d="m 24963.684,15874.7 -810.028,1439.809 -630.505,1119.828 c 956.808,-263.39 1947.218,-256.807 2852.126,49.403 l -625.388,-1155.95 z m -4520.035,1164.063 11.783,1651.889 9.301,1314.339 c 645.24,-704.73 1509.892,-1187.795 2474.992,-1418.363 l -1092.027,-677.323 z m 8851.657,0 -1403.894,870.542 -1092.13,677.323 c 965.098,230.568 1829.765,713.633 2475.043,1418.363 l 9.25,-1314.339 z m -4457.609,1617.369 c -2920.246,0 -5326.239,1912.006 -5654.229,4374.72 h 11308.147 c -327.75,-2462.714 -2733.904,-4374.72 -5653.918,-4374.72 z m -4741.572,1659.692 -1283.229,70.125 -1649.511,90.124 955.652,1347.618 760.108,1072.131 c 125.5,-947.178 557.672,-1838.408 1216.98,-2579.998 z m 9508.051,0 c 659.448,741.59 1091.495,1632.82 1217.135,2579.998 l 760.057,-1072.131 955.549,-1347.618 -1649.357,-90.124 z" />
 </g>
</svg>
