<?xml version="1.0" encoding="UTF-8" standalone="no"?>
<!-- Creator: CorelDRAW -->

<svg
   xml:space="preserve"
   width="428.30048mm"
   height="175.77531mm"
   version="1.1"
   style="clip-rule:evenodd;fill-rule:evenodd;image-rendering:optimizeQuality;shape-rendering:geometricPrecision;text-rendering:geometricPrecision"
   viewBox="0 0 42830.048 17577.531"
   id="svg209"
   xmlns="http://www.w3.org/2000/svg"
   xmlns:svg="http://www.w3.org/2000/svg">
 <defs
   id="defs184"><style
     type="text/css"
     id="style182">
   <![CDATA[
    .str0 {stroke:black;stroke-width:7.62;stroke-miterlimit:10}
    .fil0 {fill:#FFF212}
    .fil1 {fill:#201E1E}
    .fil2 {fill:#FFF212;fill-rule:nonzero}
    .fil3 {fill:#201E1E;fill-rule:nonzero}
   ]]>
  </style></defs>
 <g
   id="Camada_x0020_1"
   transform="translate(-3435.23,-15874.7)">
  <metadata
   id="CorelCorpID_0Corel-Layer" />
  <path
   id="path187"
   style="stroke:none"
   class="fil0 str0"
   d="m 24963.684,15874.7 -810.028,1439.809 -630.505,1119.828 c 956.809,-263.39 1947.217,-256.807 2852.126,49.403 l -625.388,-1155.95 z m -4520.035,1164.063 11.783,1651.889 9.301,1314.339 c 645.24,-704.73 1509.892,-1187.794 2474.992,-1418.363 l -1092.027,-677.323 z m 8851.657,0 -1403.894,870.542 -1092.13,677.323 c 965.099,230.569 1829.764,713.633 2475.043,1418.363 l 9.25,-1314.339 z m -4457.609,1617.369 c -2920.248,0 -5326.239,1912.003 -5654.229,4374.72 h 11308.147 c -327.75,-2462.717 -2733.901,-4374.72 -5653.918,-4374.72 z m -4741.572,1659.692 -1283.229,70.125 -1649.511,90.124 955.652,1347.618 760.108,1072.131 c 125.5,-947.179 557.671,-1838.408 1216.98,-2579.998 z m 9508.051,0 c 659.449,741.59 1091.495,1632.819 1217.135,2579.998 l 760.057,-1072.131 955.549,-1347.618 -1649.357,-90.124 z m -24145.7103,3339.28 c -567.8594,0 -1029.225,167.713 -1382.9647,501.933 -353.7896,334.17 -531.2854,764.838 -531.2854,1293.358 0,239.059 43.2727,448.855 128.6226,627.765 86.73,179.05 233.5071,359.281 441.9369,539.76 100.5299,86.59 399.9001,262.766 897.6196,528.495 l 218.0746,118.856 c 229.3298,124.41 394.3886,248.937 495.0085,369.176 100.7499,121.61 150.9986,257.191 150.9986,408.141 0,184.69 -67.0715,339.876 -201.3314,461.626 -132.9399,123.069 -303.5003,184.433 -511.7,184.433 -201.3698,0 -387.3001,-71.212 -555.16,-212.442 -167.7798,-142.65 -307.516,-345.472 -419.4059,-609.782 l -753.6491,454.494 c 171.9398,344.02 422.2391,609.593 752.0988,798.453 328.7597,188.77 707.5403,282.463 1136.8299,282.463 601.2694,0 1089.2789,-169.368 1465.3886,-507.617 376.1996,-338.29 563.5315,-775.999 563.5315,-1314.339 0,-246.02 -44.6719,-460.012 -132.9118,-644.612 -89.4799,-184.679 -234.7963,-359.254 -437.596,-525.704 -114.6899,-96.4 -451.7853,-282.388 -1012.4447,-560.638 l -102.061,-53.175 c -300.5697,-153.75 -501.8548,-288.103 -606.7847,-402.662 -104.8299,-114.69 -157.9231,-248.823 -157.9231,-401.423 0,-180.29 62.9177,-331.359 190.1176,-451.549 127.1598,-120.23 288.061,-180.505 480.9008,-180.505 232.1298,0 432.0802,65.83 599.8601,197.3 167.8598,131.37 306.1736,328.597 415.3235,591.437 l 623.7345,-434.961 c -169.1898,-342.509 -404.1035,-603.978 -704.7632,-785.688 -300.6097,-181.8 -650.1655,-272.593 -1050.0651,-272.593 z m 2385.0741,125.78 v 3490.071 c 0,392.8 39.2123,703.273 117.5122,929.763 76.9599,226.49 209.7931,430.652 394.3429,611.022 180.2498,177.58 418.0134,318.813 713.0831,423.643 296.3497,104.93 605.3779,158.027 931.1576,158.027 718.8094,0 1255.6614,-177.494 1612.2014,-531.234 356.54,-353.889 535.575,-883.821 535.575,-1591.221 v -3490.071 h -780.16 v 3243.885 c 0,541.179 -75.649,920.2 -225.309,1136.83 -149.49,216.73 -405.418,325.768 -764.708,325.768 -360.839,0 -616.6402,-109.052 -769.1,-327.112 -152.4199,-219.75 -229.2367,-597.057 -229.2367,-1135.486 v -3243.885 z m 5123.0982,0 v 5478.374 h 813.594 V 25256.04 l 2614.879,4003.218 h 891.987 v -5478.374 h -822.172 v 2802.103 L 14652.84,23780.884 Z" /><path
   id="path199"
   style="fill:#ffffff;fill-opacity:1;stroke:none"
   class="fil1 str0"
   d="m 28256.609,23654.897 v 5508.863 h 588.957 v -4072.155 l 4121.195,4310.435 v -5523.126 h -589.059 v 4093.446 z m 16452.536,133.015 c -196.419,0 -383.086,31.628 -560.896,94.568 -177.399,63.26 -335.321,153.246 -472.891,269.906 -137.789,117.03 -246.603,258.284 -326.233,424.264 -79.16,165.759 -119.114,351.275 -119.114,556.865 0,191.75 30.637,356.317 91.467,494.337 60.83,137.659 143.686,258.24 248.615,360.959 105.29,102.64 227.82,193.852 368.04,273.472 140,79.3 287.374,153.914 441.523,223.914 l 322.72,140.147 c 121.2,56.15 240.301,113.46 357.291,171.72 116.57,58.86 220.787,127.36 311.867,207.12 91.04,79.299 164.548,172.838 220.968,280.138 55.7,107.359 83.82,238.209 83.82,392.689 0,149.3 -30.173,287.183 -91.003,413.153 -60.83,126.29 -141.685,235.075 -241.845,325.975 -100.66,91.12 -216.253,162.715 -347.163,213.785 -130.74,51.66 -266.257,77.153 -406.486,77.153 -139.99,0 -270.978,-25.493 -392.638,-77.153 -121.2,-51.07 -227.545,-121.546 -318.585,-210.116 -91.45,-88.79 -167.063,-192.726 -227.893,-311.816 -60.83,-119.23 -100.554,-246.402 -119.114,-381.992 l -574.591,161.127 c 41.81,205.59 111.927,392.563 210.117,560.793 98.23,168.19 218.643,311.93 361.063,430.93 142.56,119.089 304.56,211.229 487.05,276.779 181.98,65.369 378.362,98.081 588.491,98.081 229.1,0 444.131,-41.902 645.181,-125.832 200.82,-84.39 377.307,-198.836 529.166,-343.596 151.82,-144.62 270.88,-316.453 357.24,-515.163 86.5,-198.4 129.966,-414.746 129.966,-648.436 0,-210.079 -34.284,-391.144 -101.854,-542.964 -67.79,-152.28 -160.006,-285.206 -276.986,-399.665 -116.57,-114.64 -250.946,-214.862 -402.766,-301.222 -151.86,-86.5 -314.411,-167.226 -487.361,-241.846 l -350.107,-154.358 c -88.92,-41.9 -182.477,-86.393 -280.707,-132.963 -97.73,-46.89 -186.617,-102.8 -266.237,-168.31 -79.39,-65.32 -145.896,-141.393 -199.626,-227.893 -53.76,-86.36 -80.615,-185.575 -80.615,-297.605 0,-121.61 23.438,-232.638 69.918,-333.158 47.08,-100.3 111.037,-186.74 192.857,-259.26 81.829,-72.33 175.388,-128.457 280.448,-168.207 104.929,-39.78 215.921,-59.428 332.951,-59.428 224.01,0 405.268,50.182 543.067,150.482 137.93,100.62 260.677,241.835 367.937,424.315 l 469.428,-301.584 c -140.04,-261.88 -329.216,-463.941 -567.665,-606.371 -238.19,-142.33 -504.435,-213.734 -798.815,-213.734 z m -26589.746,91.002 v 5284.846 h 1226.488 c 261.42,0 506.798,-26.779 735.717,-80.409 229.11,-54.09 429.959,-140.481 602.909,-259.57 172.77,-119.23 308.309,-272.116 406.539,-459.146 97.96,-186.749 147.174,-411.177 147.174,-672.827 0,-158.92 -21.959,-310.486 -66.559,-455.476 -44.33,-144.76 -109.804,-278.169 -196.164,-399.459 -86.59,-121.519 -191.868,-225.407 -315.588,-311.867 -123.77,-86.5 -265.342,-148.273 -423.901,-185.673 177.579,-121.52 308.257,-269.943 392.327,-445.193 84.25,-175.29 126.091,-370.256 126.091,-585.235 0,-271.05 -46.432,-497.519 -139.992,-679.959 -93.56,-182.03 -220.707,-329.365 -381.837,-441.265 -161.45,-112.12 -349.702,-191.762 -564.462,-238.332 -214.76,-46.89 -441.37,-70.435 -680.01,-70.435 z m 4196.643,0 v 5284.846 h 588.904 v -2320.117 h 146.813 l 1598.042,2320.117 h 721.92 l -1682.016,-2369.158 c 411.179,-37.35 734.775,-186.62 970.845,-448.5 235.889,-261.609 353.88,-598.191 353.88,-1009.24 0,-299 -53.627,-542.974 -161.127,-732.204 -107.26,-189.54 -250.958,-337.832 -430.878,-445.192 -180.01,-107.4 -385.912,-180.92 -617.172,-220.71 -230.99,-39.92 -472.814,-59.842 -725.434,-59.842 z m 4028.694,0 v 5284.846 h 588.543 v -5284.846 z m 7938.121,0 v 5284.846 h 981.128 c 205.45,0 400.738,-8.242 585.288,-24.701 184.599,-16.36 361.946,-48.979 532.835,-97.979 170.15,-49.1 335.309,-116.767 493.769,-203.037 159.159,-86.49 318.04,-199.951 476.87,-340.031 294.249,-261.789 511.406,-558.257 651.536,-890.126 140.45,-331.79 210.478,-691.691 210.478,-1079.211 0,-397.339 -70.028,-766.43 -210.478,-1107.839 -140.13,-340.91 -362.054,-642.2 -665.644,-904.079 -154.02,-130.69 -311.823,-238.16 -472.943,-322.41 -161.539,-83.84 -326.235,-149.437 -494.285,-195.957 -168.32,-46.99 -343.163,-78.208 -525.652,-94.568 -182.12,-16.69 -371.654,-24.908 -567.614,-24.908 z m 4967.862,0 v 5284.846 h 2740.401 v -546.685 h -2151.858 v -2074.654 h 2088.813 v -546.582 h -2088.813 v -1569.981 h 2151.858 v -546.944 z m -20542.778,546.944 h 231.252 c 182.44,0 348.166,8.134 497.696,24.494 149.53,16.46 278.12,54.832 385.61,115.652 107.27,60.7 191.581,149.309 252.181,266.289 60.83,116.57 90.95,275.692 90.95,476.612 0,205.449 -32.27,368.064 -97.72,487.153 -65.51,119.09 -154.349,209.128 -266.289,269.958 -112.579,60.69 -243.084,99.179 -392.844,115.549 -149.48,16.36 -308.315,24.494 -476.405,24.494 h -224.431 z m 4197.005,0 h 174.873 c 177.86,0 347.287,9.218 508.186,28.008 161.68,18.57 303.84,59.384 427.83,122.784 123.729,63.03 222.934,158.559 297.604,287.269 74.86,128.49 112.138,300.247 112.138,515.007 0,205.59 -38.55,370.552 -115.6,494.182 -76.74,123.76 -178.92,219.534 -304.839,287.424 -126.2,67.56 -268.843,112.012 -427.313,132.912 -159.01,21.04 -322.606,31.626 -490.926,31.626 h -181.953 z m 11966.66,0 h 427.416 c 312.95,0 603.914,31.218 872.763,94.568 268.62,63.03 524.179,202.089 767.499,417.028 228.689,200.73 400.315,439.354 514.955,714.944 114.46,275.58 171.721,565.414 171.721,869.094 0,294.38 -54.684,574.703 -164.744,840.982 -109.79,266.42 -274.394,502.151 -493.924,708.071 -121.52,111.93 -246.437,204.166 -375.067,276.676 -128.4,72.569 -261.824,128.413 -399.304,168.103 -138.11,39.93 -281.708,66.61 -431.188,80.77 -149.76,13.89 -303.691,20.981 -462.711,20.981 h -427.416 z M 18707.941,26710.68 h 511.7 c 159.02,0 323.624,10.316 493.924,31.626 170.75,21.04 324.794,64.041 462.814,129.501 137.8,65.36 250.956,159.932 339.876,283.652 88.89,124.09 133.015,288.89 133.015,494.44 0,200.82 -39.494,364.476 -119.114,490.306 -79.39,126.2 -183.236,224.415 -311.816,294.555 -128.39,70.32 -273.149,118.066 -434.599,143.506 -161.119,26.09 -323.613,38.809 -486.843,38.809 h -588.957 z M 4216.526,29723.726 c -429.5196,0 -781.0893,111.587 -781.0893,248.047 0,136.459 351.5697,248.15 781.0893,248.15 h 41267.249 c 429.52,0 781.038,-111.691 781.038,-248.15 0,-136.46 -351.518,-248.047 -781.038,-248.047 z m 5265.9835,1786.506 c -126.3798,0 -241.3985,21.489 -344.5784,64.388 -103.7399,42.77 -182.183,105.361 -235.9029,188.051 -53.72,82.19 -80.9253,170.9 -80.9253,266.34 0,86.13 22.0059,164.415 66.1458,234.095 43.69,69.45 110.2245,128.039 199.8845,175.389 69.0299,36.72 189.6637,75.633 362.6135,117.203 172.6398,41.49 284.2233,72.127 334.5532,91.467 78.7099,30.12 135.1387,66.767 169.1887,110.587 34.1499,44.1 51.3144,95.315 51.3144,153.945 0,57.719 -18.0015,111.563 -53.3815,161.023 -35.53,49.28 -89.204,88.356 -161.9539,116.686 -72.43,28.42 -156.0092,42.426 -250.8891,42.426 -106.8099,0 -203.0429,-18.786 -288.3028,-55.966 -85.4,-37.58 -148.2808,-86.597 -188.9808,-146.967 -40.7099,-60.82 -66.4513,-138.181 -77.4113,-232.751 l -233.5774,20.981 c 3.44,125.65 37.5979,238.002 103.1978,337.292 65.2299,99.66 154.9478,174.08 269.9577,223.5 114.4599,49.41 256.7474,74.311 426.5373,74.311 134.1298,0 254.2834,-24.407 361.6833,-73.277 107.1297,-49.14 188.7867,-117.898 246.1867,-206.137 57.3,-88.38 85.731,-181.942 85.731,-282.102 0,-100.53 -25.923,-189.384 -77.773,-266.444 -52.12,-77.29 -133.091,-140.769 -242.0007,-191.099 -75.3199,-34.06 -213.8721,-73.948 -415.8919,-119.838 -202.0498,-45.56 -326.886,-90.622 -375.0159,-133.842 -48.4,-43.78 -72.9671,-99.276 -72.9671,-166.656 0,-77.93 34.6279,-144.308 103.1978,-199.368 68.6699,-55.19 178.4823,-82.734 328.9722,-82.734 144.2998,0 253.7769,30.069 327.5769,90.899 74.0799,60.37 117.2145,150.074 129.9145,268.614 l 238.7972,-18.345 c -4.31,-110.29 -34.98,-209.018 -92.139,-296.158 -57.26,-87.47 -139.1519,-153.476 -245.4118,-198.076 -106.2599,-45.1 -229.2198,-67.437 -368.3497,-67.437 z m 1923.6555,0 c -265.09,0 -481.066,87.935 -648.746,264.325 -167.41,176.159 -251.458,420.208 -251.458,731.738 0,164.74 35.952,320.924 107.642,468.343 71.65,147.97 177.684,264.177 316.673,349.436 139.44,85.36 297.375,128.158 474.545,128.158 163.09,0 315.383,-38.387 456.613,-115.807 141,-77.06 249.894,-190.846 326.854,-341.116 76.97,-150.17 115.341,-320.608 115.341,-511.028 0,-187.57 -36.69,-355.511 -109.76,-503.38 -72.98,-148.29 -179.311,-263.751 -318.431,-346.491 -139.539,-82.6 -295.543,-124.178 -469.273,-124.178 z m 13124.522,0 c -265.18,0 -481.233,87.935 -648.643,264.325 -167.68,176.159 -251.457,420.208 -251.457,731.738 0,164.74 35.658,320.924 107.538,468.343 71.78,147.97 177.502,264.177 316.622,349.436 139.54,85.36 297.478,128.158 474.648,128.158 163.1,0 315.256,-38.387 456.716,-115.807 140.63,-77.06 249.625,-190.846 326.595,-341.116 76.96,-150.17 115.549,-320.608 115.549,-511.028 0,-187.57 -36.703,-355.511 -109.813,-503.38 -73.12,-148.29 -179.298,-263.751 -318.378,-346.491 -139.58,-82.6 -295.867,-124.178 -469.377,-124.178 z m 1868.051,0 c -126.38,0 -241.388,21.489 -344.578,64.388 -103.6,42.77 -181.903,105.361 -235.903,188.051 -53.63,82.19 -80.822,170.9 -80.822,266.34 0,86.13 21.901,164.415 65.991,234.095 43.69,69.45 110.278,128.039 199.988,175.389 68.979,36.72 189.832,75.633 362.561,117.203 172.77,41.49 284.224,72.127 334.554,91.467 78.75,30.12 135.115,66.767 169.395,110.587 33.97,44.1 51.108,95.315 51.108,153.945 0,57.719 -18.054,111.563 -53.433,161.023 -35.48,49.28 -89.098,88.356 -161.748,116.686 -72.56,28.42 -156.204,42.426 -251.044,42.426 -106.85,0 -203.079,-18.786 -288.199,-55.966 -85.4,-37.58 -148.384,-86.597 -189.084,-146.967 -40.66,-60.82 -66.348,-138.181 -77.308,-232.751 l -233.681,20.981 c 3.44,125.65 37.711,238.002 103.301,337.292 65.14,99.66 154.783,174.08 269.803,223.5 114.69,49.41 256.797,74.311 426.537,74.311 134.26,0 254.475,-24.407 361.735,-73.277 107.17,-49.14 188.89,-117.898 246.29,-206.137 57.25,-88.38 85.576,-181.942 85.576,-282.102 0,-100.53 -25.641,-189.384 -77.721,-266.444 -52.07,-77.29 -132.939,-140.769 -241.949,-191.099 -75.31,-34.06 -213.884,-73.948 -415.944,-119.838 -202.02,-45.56 -326.679,-90.622 -374.809,-133.842 -48.54,-43.78 -73.174,-99.276 -73.174,-166.656 0,-77.93 34.605,-144.308 103.405,-199.368 68.58,-55.19 178.505,-82.734 328.765,-82.734 144.35,0 253.779,30.069 327.629,90.899 73.99,60.37 117.266,150.074 129.966,268.614 l 238.9,-18.345 c -4.54,-110.29 -35.186,-209.018 -92.346,-296.158 -57.4,-87.47 -139.111,-153.476 -245.411,-198.076 -106.25,-45.1 -229.23,-67.437 -368.35,-67.437 z m 10355.389,0 c -126.37,0 -241.399,21.489 -344.578,64.388 -103.73,42.77 -181.953,105.361 -235.903,188.051 -53.72,82.19 -80.926,170.9 -80.926,266.34 0,86.13 21.955,164.415 66.094,234.095 43.69,69.45 110.278,128.039 199.988,175.389 68.98,36.72 189.654,75.633 362.614,117.203 172.63,41.49 284.171,72.127 334.501,91.467 78.71,30.12 135.129,66.767 169.189,110.587 34.15,44.1 51.315,95.315 51.315,153.945 0,57.719 -18.054,111.563 -53.434,161.023 -35.48,49.28 -89.242,88.356 -161.902,116.686 -72.42,28.42 -156.009,42.426 -250.889,42.426 -106.81,0 -203.043,-18.786 -288.303,-55.966 -85.4,-37.58 -148.281,-86.597 -188.981,-146.967 -40.71,-60.82 -66.324,-138.181 -77.514,-232.751 l -233.474,20.981 c 3.44,125.65 37.611,238.002 103.301,337.292 65.14,99.66 154.663,174.08 269.802,223.5 114.47,49.41 256.798,74.311 426.538,74.311 134.13,0 254.465,-24.407 361.735,-73.277 107.17,-49.14 188.796,-117.898 246.186,-206.137 57.39,-88.38 85.68,-181.942 85.68,-282.102 0,-100.53 -25.872,-189.384 -77.722,-266.444 -52.119,-77.29 -133.04,-140.769 -242,-191.099 -75.32,-34.06 -213.972,-73.948 -415.892,-119.838 -202.06,-45.56 -326.886,-90.622 -375.016,-133.842 -48.4,-43.78 -72.967,-99.276 -72.967,-166.656 0,-77.93 34.589,-144.308 103.249,-199.368 68.58,-55.19 178.431,-82.734 328.921,-82.734 144.3,0 253.817,30.069 327.577,90.899 74.08,60.37 117.229,150.074 130.069,268.614 l 238.694,-18.345 c -4.4,-110.29 -35.033,-209.018 -92.243,-296.158 -57.39,-87.47 -139.1,-153.476 -245.359,-198.076 -106.26,-45.1 -229.22,-67.437 -368.35,-67.437 z m 8749.699,0 c -126.43,0 -241.439,21.489 -344.579,64.388 -103.73,42.77 -182.183,105.361 -235.903,188.051 -53.77,82.19 -80.977,170.9 -80.977,266.34 0,86.13 22.046,164.415 66.146,234.095 43.68,69.45 110.276,128.039 199.936,175.389 69.03,36.72 189.654,75.633 362.614,117.203 172.63,41.49 284.211,72.127 334.501,91.467 78.75,30.12 135.129,66.767 169.189,110.587 34.2,44.1 51.366,95.315 51.366,153.945 0,57.719 -18.053,111.563 -53.433,161.023 -35.53,49.28 -89.242,88.356 -161.902,116.686 -72.65,28.42 -156.01,42.426 -250.889,42.426 -106.86,0 -203.173,-18.786 -288.303,-55.966 -85.4,-37.58 -148.321,-86.597 -188.981,-146.967 -40.71,-60.82 -66.516,-138.181 -77.566,-232.751 l -233.578,20.981 c 3.58,125.65 37.625,238.002 103.405,337.292 65.14,99.66 154.703,174.08 269.802,223.5 114.46,49.41 256.798,74.311 426.538,74.311 134.18,0 254.41,-24.407 361.58,-73.277 107.26,-49.14 189.003,-117.898 246.393,-206.137 57.16,-88.38 85.628,-181.942 85.628,-282.102 0,-100.53 -25.832,-189.384 -77.722,-266.444 -52.08,-77.29 -133.039,-140.769 -241.949,-191.099 -75.32,-34.06 -213.972,-73.948 -415.892,-119.838 -202.159,-45.56 -326.926,-90.622 -375.015,-133.842 -48.45,-43.78 -72.968,-99.276 -72.968,-166.656 0,-77.93 34.59,-144.308 103.25,-199.368 68.58,-55.19 178.366,-82.734 328.765,-82.734 144.44,0 253.841,30.069 327.681,90.899 73.99,60.37 117.228,150.074 130.018,268.614 l 238.796,-18.345 c -4.45,-110.29 -35.082,-209.018 -92.242,-296.158 -57.39,-87.47 -139.1,-153.476 -245.36,-198.076 -106.39,-45.1 -229.23,-67.437 -368.349,-67.437 z m -42068.3893,31.522 v 1879.11 h 249.4938 v -766.361 h 481.9344 c 265.8298,0 450.041,-55.168 551.4909,-165.778 102.0399,-110.16 152.7039,-245.428 152.7039,-404.678 0,-93.1 -18.8941,-178.34 -56.8441,-255.85 -38.0499,-77.43 -88.4669,-137.805 -150.9468,-181.074 -62.57,-42.77 -139.9007,-72.087 -232.1306,-87.437 -66.0999,-11.74 -161.5442,-17.932 -286.1841,-17.932 z m 1755.7585,0 v 1879.11 h 1401.4649 v -220.4 H 5440.4823 v -640.529 h 1036.6293 v -220.4 H 5440.4823 v -577.381 h 1107.5293 v -220.4 z m 1750.5908,0 v 1879.11 h 249.2355 v -834.522 h 287.786 c 64.22,0 110.2612,2.901 138.1311,8.681 38.46,9.71 76.6298,26.308 113.4298,49.868 37.13,24.11 79.1006,65.524 126.4006,125.574 46.8099,59.82 106.6871,146.092 178.6971,259.312 l 248.6153,391.087 h 310.4203 l -324.8897,-511.803 c -64.3599,-100.2 -133.0506,-183.696 -205.6205,-250.166 -34.06,-30.62 -83.9934,-62.134 -149.9134,-93.534 180.1498,-25.12 313.1739,-82.841 399.3038,-174.201 86.1799,-91.31 129.3978,-203.787 129.3978,-337.137 0,-103.28 -25.7031,-197.772 -77.773,-283.032 -52.21,-85.26 -121.7079,-144.839 -208.6178,-178.439 -87.0499,-33.74 -214.439,-50.798 -381.8888,-50.798 z m 5679.137,0 v 1879.11 h 238.745 v -1474.897 l 985.883,1474.897 h 255.436 v -1879.11 h -238.693 v 1474.897 l -986.09,-1474.897 z m 2412.566,0 -720.938,1879.11 h 263.86 l 203.863,-569.526 h 791.321 l 217.3,569.526 h 282.98 l -764.915,-1879.11 z m 1225.196,0 v 1879.11 h 1172.952 v -220.4 h -923.613 v -1658.71 z m 1512.156,0 v 1879.11 h 249.235 v -1879.11 z m 647.557,0 v 220.4 h 1047.688 c -61.7,64.73 -126.362,139.543 -195.492,224.483 l -962.215,1204.526 v 229.701 h 1485.388 v -220.4 h -1199.772 l 112.81,-134.668 1055.491,-1303.642 v -220.4 z m 2157.336,0 -720.938,1879.11 h 263.86 l 203.967,-569.526 h 791.218 l 217.3,569.526 h 282.98 l -764.915,-1879.11 z m 1235.687,0 v 1879.11 h 677.943 c 113.59,0 214.373,-10.677 302.153,-31.987 87.459,-21.36 162.344,-52.973 223.913,-94.413 62.15,-41.16 119.026,-98.122 171.566,-170.222 51.98,-72.24 94.978,-163.554 128.158,-273.834 33.28,-110.25 49.868,-236.642 49.868,-379.201 0,-167.41 -24.541,-316.58 -74.001,-446.95 -48.95,-130.37 -122.906,-237.099 -222.105,-321.169 -76.23,-64.68 -167.871,-109.679 -275.591,-134.669 -76.87,-17.92 -188.553,-26.665 -334.553,-26.665 z m 6421.262,0 v 1879.11 h 1401.568 v -220.4 h -1152.177 v -640.529 h 1036.629 v -220.4 h -1036.629 v -577.381 h 1107.529 v -220.4 z m 2474.371,0 v 1879.11 h 249.391 v -766.361 h 482.037 c 265.83,0 450.051,-55.168 551.491,-165.778 102.04,-110.16 152.704,-245.428 152.704,-404.678 0,-93.1 -18.804,-178.34 -56.844,-255.85 -38.05,-77.43 -88.327,-137.805 -150.947,-181.074 -62.57,-42.77 -139.914,-72.087 -232.234,-87.437 -66.01,-11.74 -161.441,-17.932 -286.08,-17.932 z m 1755.759,0 v 1879.11 h 249.287 v -834.522 h 287.941 c 64.27,0 110.081,2.901 138.131,8.681 38.51,9.71 76.658,26.308 113.378,49.868 37.03,24.11 79.051,65.524 126.401,125.574 46.76,59.82 106.558,146.092 178.748,259.312 l 248.512,391.087 h 310.524 l -324.993,-511.803 c -64.22,-100.2 -133.036,-183.696 -205.466,-250.166 -34.19,-30.62 -84.071,-62.134 -150.171,-93.534 180.24,-25.12 313.264,-82.841 399.304,-174.201 86.269,-91.31 129.656,-203.787 129.656,-337.137 0,-103.28 -25.897,-197.772 -77.877,-283.032 -52.07,-85.26 -121.669,-144.839 -208.669,-178.439 -87.14,-33.74 -214.437,-50.798 -381.837,-50.798 z m 1895.233,0 v 1879.11 h 1401.465 v -220.4 h -1152.178 v -640.529 h 1036.577 v -220.4 h -1036.577 v -577.381 h 1107.529 v -220.4 z m 3500.923,0 v 1879.11 h 1401.362 v -220.4 H 38108.36 v -640.529 h 1036.629 v -220.4 H 38108.36 v -577.381 h 1107.529 v -220.4 z m 1742.633,0 v 1879.11 h 238.9 v -1474.897 l 985.831,1474.897 h 255.437 v -1879.11 h -238.849 v 1474.897 l -985.883,-1474.897 z m 1755.965,0 v 220.4 h 619.549 v 1658.71 h 249.287 v -1658.71 h 619.239 v -220.4 z m 1750.177,0 v 1879.11 h 1401.414 v -220.4 h -1152.126 v -640.529 h 1036.577 v -220.4 h -1036.577 v -577.381 h 1107.477 v -220.4 z m -31700.287,183.658 c 123.73,0 235.356,31.533 334.966,94.103 99.43,62.48 175.072,150.852 226.601,264.532 51.66,113.78 77.515,247.194 77.515,399.924 0,241.399 -60.246,427.704 -181.126,558.984 -121.11,131.02 -274.736,196.887 -461.935,196.887 -183.59,0 -336.194,-65.282 -457.854,-195.182 -121.609,-129.82 -182.314,-307.905 -182.314,-534.024 0,-282.24 63.366,-483.306 190.066,-604.046 126.84,-120.74 278.241,-181.178 454.081,-181.178 z m 13124.573,0 c 123.77,0 235.372,31.533 335.122,94.103 99.06,62.48 174.823,150.852 226.343,264.532 51.76,113.78 77.515,247.194 77.515,399.924 0,241.399 -60.386,427.704 -181.126,558.984 -121.2,131.02 -274.623,196.887 -461.833,196.887 -183.769,0 -336.258,-65.282 -458.008,-195.182 -121.57,-129.82 -182.366,-307.905 -182.366,-534.024 0,-282.24 63.433,-483.306 190.273,-604.046 126.969,-120.74 278.241,-181.178 454.08,-181.178 z m -9369.04,10.542 c 30.99,103.13 75.759,233.961 134.669,392.431 l 195.957,520.899 h -640.271 l 206.034,-551.491 c 43.229,-119.09 77.761,-239.319 103.611,-361.839 z m 5542.246,0 c 30.94,103.13 75.718,233.961 134.668,392.431 l 195.957,520.899 h -640.271 l 205.983,-551.491 c 43.13,-119.09 77.763,-239.319 103.663,-361.839 z m -13514.2145,13.178 h 594.0206 c 138.5298,0 240.0242,28.279 304.3742,85.679 64.2699,57.39 96.2215,130.732 96.2215,219.522 0,60.83 -16.5495,116.803 -49.9194,168.413 -32.78,52.13 -81.2326,89.813 -145.2625,112.913 -63.7199,23.56 -152.017,35.347 -265.9269,35.347 h -533.5075 z m 25521.0785,0 h 593.917 c 138.8,0 240.231,28.279 304.581,85.679 64.27,57.39 96.118,130.732 96.118,219.522 0,60.83 -16.484,116.803 -49.764,168.413 -32.73,52.13 -81.401,89.813 -145.211,112.913 -63.94,23.56 -152.262,35.347 -266.082,35.347 H 32712.1 Z m -29027.1695,13.022 h 480.6942 c 112.3499,0 189.7655,5.778 231.6655,16.588 64.6799,18.02 117.3547,55.196 157.0446,111.156 39.93,56.07 59.5313,123.394 59.5313,201.694 0,108.819 -33.6358,192.751 -100.9758,252.801 -67.7999,59.96 -181.7015,89.71 -342.5114,89.71 h -485.4484 z m 18375.6225,0 h 394.24 c 147.88,0 254.916,12.743 321.376,38.603 92.46,35.75 170.752,106.705 234.972,212.545 64.35,105.71 96.687,257.176 96.687,453.926 0,142.089 -16.674,262.915 -49.454,362.665 -32.82,99.74 -78.636,179.343 -137.356,238.383 -42.04,42.03 -97.864,74.44 -168.414,97.41 -70.32,23.33 -167.427,34.778 -291.197,34.778 h -400.854 z m 8895.892,0 h 480.797 c 112.35,0 189.766,5.778 231.666,16.588 64.72,18.02 117.354,55.196 157.044,111.156 39.93,56.07 59.532,123.394 59.532,201.694 0,108.819 -33.65,192.751 -101.08,252.801 -67.71,59.96 -181.508,89.71 -342.408,89.71 h -485.551 z" />
 </g>
</svg>
